<?xml version="1.0" encoding="utf-8"?>
<!-- Generator: Adobe Illustrator 18.1.1, SVG Export Plug-In . SVG Version: 6.00 Build 0)  -->
<svg version="1.1" id="Layer_1" xmlns="http://www.w3.org/2000/svg" xmlns:xlink="http://www.w3.org/1999/xlink" x="0px" y="0px"
	 viewBox="0 0 133 207" enable-background="new 0 0 133 207" xml:space="preserve">
<path fill="#FFFFFF" d="M125.4,53.1c-1.1-7.1-5.3-13.5-11.5-17.2c-8-4.8-16.6-8.2-25.4-10.4V0.1H43.9v25.3
	c-8.8,2.2-17.4,5.6-25.4,10.4C12.2,39.6,8,46,6.9,53.1H0v12.5h6.6v107.5c0,8.5,4.5,16.4,11.8,20.8c14.7,8.8,31.2,13.2,47.7,13.2
	s33-4.4,47.7-13.2c7.3-4.3,11.8-12.3,11.8-20.8V65.6h6.7V53.1H125.4z M56.3,12.6h19.8v10.3h-5.3c-3.1-0.2-6.2-0.2-9.3,0h-5.2V12.6z
	 M24.8,46.6c11.4-6.8,24-10.5,36.8-11.3h9.1c12.8,0.7,25.4,4.5,36.8,11.3c2.5,1.5,4.3,3.8,5.1,6.5h-93
	C20.5,50.4,22.3,48.1,24.8,46.6z M19.1,65.6h40.8v38.3c-2.5-2.2-6-4.7-11.8-4.7c-6.9,0-10.6,3.5-13.1,5.9c-2,1.9-2.7,2.5-4.5,2.5
	c-1.8,0-2.5-0.5-4.5-2.5c-1.6-1.5-3.7-3.5-6.9-4.7V65.6z M113.2,173.1c0,4.1-2.2,8-5.7,10.1c-25.5,15.2-57.2,15.2-82.7,0
	c-3.5-2.1-5.7-6-5.7-10.1v-57.5c2.4,2.1,5.9,4.3,11.4,4.3c6.9,0,10.6-3.5,13.1-5.9c2-1.9,2.7-2.5,4.5-2.5c1.8,0,2.5,0.6,4.5,2.5
	c1.7,1.6,3.9,3.7,7.3,4.9v32.6H46.1V144H33.6v27.4h12.5V164h40.1v7.5h12.5V144H86.2v7.5H72.4v-32.9c2.9-1.2,4.9-3.1,6.4-4.5
	c2-1.9,2.7-2.5,4.5-2.5c1.8,0,2.5,0.6,4.5,2.5c2.5,2.3,6.2,5.9,13.1,5.9c6.2,0,9.8-2.8,12.3-5.1V173.1z M113.2,100
	c-3.6,1.2-6,3.4-7.7,5c-2,1.9-2.7,2.5-4.5,2.5c-1.8,0-2.5-0.5-4.5-2.5c-2.5-2.3-6.2-5.9-13.1-5.9c-5.1,0-8.5,2-10.9,3.9V65.6h40.8
	V100z"/>
</svg>
